G04 #@! TF.GenerationSoftware,KiCad,Pcbnew,(5.1.0)-1*
G04 #@! TF.CreationDate,2019-08-22T10:23:38+05:30*
G04 #@! TF.ProjectId,TSAL,5453414c-2e6b-4696-9361-645f70636258,rev?*
G04 #@! TF.SameCoordinates,Original*
G04 #@! TF.FileFunction,Copper,L1,Top*
G04 #@! TF.FilePolarity,Positive*
%FSLAX46Y46*%
G04 Gerber Fmt 4.6, Leading zero omitted, Abs format (unit mm)*
G04 Created by KiCad (PCBNEW (5.1.0)-1) date 2019-08-22 10:23:38*
%MOMM*%
%LPD*%
G04 APERTURE LIST*
%ADD10C,1.800000*%
%ADD11O,2.000000X2.000000*%
%ADD12R,2.000000X2.000000*%
%ADD13R,1.200000X0.600000*%
%ADD14R,1.200000X0.400000*%
%ADD15C,1.130000*%
%ADD16O,1.400000X1.400000*%
%ADD17C,1.400000*%
%ADD18C,0.250000*%
%ADD19C,0.254000*%
G04 APERTURE END LIST*
D10*
X67564000Y-122618500D03*
X70564000Y-122618500D03*
X67564000Y-125618500D03*
X70564000Y-125618500D03*
X67564000Y-128618500D03*
X70564000Y-128618500D03*
X67564000Y-131618500D03*
X70564000Y-131618500D03*
D11*
X89612500Y-127190500D03*
D12*
X74612500Y-127190500D03*
X74739500Y-133159500D03*
D11*
X89739500Y-133159500D03*
D13*
X84983000Y-120906500D03*
X84983000Y-121856500D03*
X84983000Y-122806500D03*
X87483000Y-122806500D03*
X87483000Y-121856500D03*
X87483000Y-120906500D03*
D14*
X94681000Y-133081000D03*
X94681000Y-133731000D03*
X94681000Y-134381000D03*
X96581000Y-134381000D03*
X96581000Y-133081000D03*
D15*
X92550000Y-122491500D03*
X92550000Y-125031500D03*
X92550000Y-127571500D03*
X92550000Y-130111500D03*
X100490000Y-130111500D03*
X100490000Y-127571500D03*
X100490000Y-125031500D03*
X100490000Y-122491500D03*
D16*
X78295500Y-120464500D03*
D17*
X78295500Y-122364500D03*
X75247500Y-122301000D03*
D16*
X75247500Y-120401000D03*
D18*
X94681000Y-133081000D02*
X94681000Y-133731000D01*
X94281000Y-133081000D02*
X94681000Y-133081000D01*
X92550000Y-131350000D02*
X94281000Y-133081000D01*
X92550000Y-130111500D02*
X92550000Y-131350000D01*
X88333000Y-122806500D02*
X91186000Y-125659500D01*
X87483000Y-122806500D02*
X88333000Y-122806500D01*
X91186000Y-128747500D02*
X92550000Y-130111500D01*
X91186000Y-125659500D02*
X91186000Y-128747500D01*
X100154500Y-133843000D02*
X101981000Y-132016500D01*
X101981000Y-123982500D02*
X100490000Y-122491500D01*
X101981000Y-132016500D02*
X101981000Y-123982500D01*
X72580500Y-117602000D02*
X87439500Y-117602000D01*
X67564000Y-122618500D02*
X72580500Y-117602000D01*
X87439500Y-117602000D02*
X89154000Y-119316500D01*
X88333000Y-121856500D02*
X87483000Y-121856500D01*
X89154000Y-121035500D02*
X88333000Y-121856500D01*
X89154000Y-119316500D02*
X89154000Y-121035500D01*
X100154500Y-133843000D02*
X99108500Y-133843000D01*
X98346500Y-133081000D02*
X96581000Y-133081000D01*
X99108500Y-133843000D02*
X98346500Y-133081000D01*
X99034000Y-121035500D02*
X100490000Y-122491500D01*
X89154000Y-121035500D02*
X99034000Y-121035500D01*
X96181000Y-134381000D02*
X96581000Y-134381000D01*
X94735500Y-135826500D02*
X96181000Y-134381000D01*
X68789001Y-124393499D02*
X66354499Y-124393499D01*
X66354499Y-124393499D02*
X65405000Y-125342998D01*
X70564000Y-122618500D02*
X68789001Y-124393499D01*
X65405000Y-125342998D02*
X65405000Y-132524500D01*
X65405000Y-132524500D02*
X68707000Y-135826500D01*
X68707000Y-135826500D02*
X94735500Y-135826500D01*
X90961000Y-134381000D02*
X94681000Y-134381000D01*
X89739500Y-133159500D02*
X90961000Y-134381000D01*
X85833000Y-121856500D02*
X86106000Y-122129500D01*
X84983000Y-121856500D02*
X85833000Y-121856500D01*
X86106000Y-123684000D02*
X89612500Y-127190500D01*
X86106000Y-122129500D02*
X86106000Y-123684000D01*
X70564000Y-125618500D02*
X79486500Y-125618500D01*
X79486500Y-125618500D02*
X80194990Y-124910010D01*
X80194991Y-123003599D02*
X83374090Y-119824500D01*
X80194990Y-124910010D02*
X80194991Y-123003599D01*
X83374090Y-119824500D02*
X85471000Y-119824500D01*
X86106000Y-120459500D02*
X86106000Y-122129500D01*
X85471000Y-119824500D02*
X86106000Y-120459500D01*
X87483000Y-120356500D02*
X85744500Y-118618000D01*
X87483000Y-120906500D02*
X87483000Y-120356500D01*
X85744500Y-118618000D02*
X74866500Y-118618000D01*
X74866500Y-118618000D02*
X72771000Y-120713500D01*
X72771000Y-120713500D02*
X72771000Y-123190000D01*
X72771000Y-123190000D02*
X71818500Y-124142500D01*
X71818500Y-124142500D02*
X69913500Y-124142500D01*
X69913500Y-124142500D02*
X69151500Y-124904500D01*
X69151500Y-127206000D02*
X70564000Y-128618500D01*
X69151500Y-124904500D02*
X69151500Y-127206000D01*
X82928500Y-120906500D02*
X84983000Y-120906500D01*
X80645000Y-123190000D02*
X82928500Y-120906500D01*
X80645000Y-126365000D02*
X80645000Y-123190000D01*
X77166499Y-129843501D02*
X80645000Y-126365000D01*
X67564000Y-131618500D02*
X69338999Y-129843501D01*
X69338999Y-129843501D02*
X77166499Y-129843501D01*
X71463999Y-130718501D02*
X77434499Y-130718501D01*
X70564000Y-131618500D02*
X71463999Y-130718501D01*
X77434499Y-130718501D02*
X82804000Y-125349000D01*
X82804000Y-125349000D02*
X82804000Y-124015500D01*
X84013000Y-122806500D02*
X84983000Y-122806500D01*
X82804000Y-124015500D02*
X84013000Y-122806500D01*
X95090000Y-127571500D02*
X100490000Y-127571500D01*
X92550000Y-125031500D02*
X95090000Y-127571500D01*
X76459000Y-122301000D02*
X75247500Y-122301000D01*
X78295500Y-120464500D02*
X76459000Y-122301000D01*
D19*
G36*
X67972930Y-121134769D02*
G01*
X67715184Y-121083500D01*
X67412816Y-121083500D01*
X67116257Y-121142489D01*
X66836905Y-121258201D01*
X66585495Y-121426188D01*
X66371688Y-121639995D01*
X66203701Y-121891405D01*
X66087989Y-122170757D01*
X66029000Y-122467316D01*
X66029000Y-122769684D01*
X66087989Y-123066243D01*
X66203701Y-123345595D01*
X66371688Y-123597005D01*
X66408182Y-123633499D01*
X66391821Y-123633499D01*
X66354498Y-123629823D01*
X66317175Y-123633499D01*
X66317166Y-123633499D01*
X66205513Y-123644496D01*
X66062252Y-123687953D01*
X65930223Y-123758525D01*
X65814498Y-123853498D01*
X65790700Y-123882496D01*
X64894002Y-124779194D01*
X64864999Y-124802997D01*
X64828029Y-124848046D01*
X64770026Y-124918722D01*
X64699455Y-125050751D01*
X64699454Y-125050752D01*
X64655997Y-125194013D01*
X64645000Y-125305666D01*
X64645000Y-125305676D01*
X64641324Y-125342998D01*
X64645000Y-125380321D01*
X64645001Y-132487168D01*
X64641324Y-132524500D01*
X64655998Y-132673485D01*
X64699454Y-132816746D01*
X64770026Y-132948776D01*
X64841201Y-133035502D01*
X64865000Y-133064501D01*
X64893998Y-133088299D01*
X68143201Y-136337503D01*
X68166999Y-136366501D01*
X68282724Y-136461474D01*
X68414753Y-136532046D01*
X68558014Y-136575503D01*
X68669667Y-136586500D01*
X68669676Y-136586500D01*
X68706999Y-136590176D01*
X68744322Y-136586500D01*
X94698178Y-136586500D01*
X94735500Y-136590176D01*
X94772822Y-136586500D01*
X94772833Y-136586500D01*
X94884486Y-136575503D01*
X95027747Y-136532046D01*
X95159776Y-136461474D01*
X95275501Y-136366501D01*
X95299304Y-136337497D01*
X96417730Y-135219072D01*
X97181000Y-135219072D01*
X97305482Y-135206812D01*
X97425180Y-135170502D01*
X97535494Y-135111537D01*
X97632185Y-135032185D01*
X97711537Y-134935494D01*
X97770502Y-134825180D01*
X97806812Y-134705482D01*
X97819072Y-134581000D01*
X97819072Y-134181000D01*
X97806812Y-134056518D01*
X97770502Y-133936820D01*
X97719284Y-133841000D01*
X98031699Y-133841000D01*
X98544701Y-134354002D01*
X98568499Y-134383001D01*
X98684224Y-134477974D01*
X98816253Y-134548546D01*
X98959514Y-134592003D01*
X99071167Y-134603000D01*
X99071175Y-134603000D01*
X99108500Y-134606676D01*
X99145825Y-134603000D01*
X100117178Y-134603000D01*
X100154500Y-134606676D01*
X100191822Y-134603000D01*
X100191833Y-134603000D01*
X100303486Y-134592003D01*
X100446747Y-134548546D01*
X100578776Y-134477974D01*
X100694501Y-134383001D01*
X100718304Y-134353997D01*
X102492004Y-132580298D01*
X102521001Y-132556501D01*
X102553254Y-132517201D01*
X102615974Y-132440777D01*
X102686546Y-132308747D01*
X102691778Y-132291498D01*
X102730003Y-132165486D01*
X102741000Y-132053833D01*
X102741000Y-132053824D01*
X102744676Y-132016501D01*
X102741000Y-131979178D01*
X102741000Y-124019822D01*
X102744676Y-123982499D01*
X102741000Y-123945176D01*
X102741000Y-123945167D01*
X102730003Y-123833514D01*
X102686546Y-123690253D01*
X102615974Y-123558224D01*
X102578077Y-123512046D01*
X102544799Y-123471496D01*
X102544795Y-123471492D01*
X102521001Y-123442499D01*
X102492008Y-123418705D01*
X101688837Y-122615535D01*
X101690000Y-122609690D01*
X101690000Y-122373310D01*
X101643884Y-122141473D01*
X101553426Y-121923087D01*
X101422101Y-121726545D01*
X101254955Y-121559399D01*
X101058413Y-121428074D01*
X100840027Y-121337616D01*
X100608190Y-121291500D01*
X100371810Y-121291500D01*
X100365964Y-121292663D01*
X99597804Y-120524503D01*
X99574001Y-120495499D01*
X99458276Y-120400526D01*
X99326247Y-120329954D01*
X99182986Y-120286497D01*
X99071333Y-120275500D01*
X99071322Y-120275500D01*
X99034000Y-120271824D01*
X98996678Y-120275500D01*
X89914000Y-120275500D01*
X89914000Y-119353822D01*
X89917676Y-119316499D01*
X89914000Y-119279176D01*
X89914000Y-119279167D01*
X89903003Y-119167514D01*
X89859546Y-119024253D01*
X89798608Y-118910247D01*
X89788974Y-118892223D01*
X89717799Y-118805497D01*
X89694001Y-118776499D01*
X89665004Y-118752702D01*
X88514301Y-117602000D01*
X103378000Y-117602000D01*
X103378000Y-137668000D01*
X64262000Y-137668000D01*
X64262000Y-117602000D01*
X71505698Y-117602000D01*
X67972930Y-121134769D01*
X67972930Y-121134769D01*
G37*
X67972930Y-121134769D02*
X67715184Y-121083500D01*
X67412816Y-121083500D01*
X67116257Y-121142489D01*
X66836905Y-121258201D01*
X66585495Y-121426188D01*
X66371688Y-121639995D01*
X66203701Y-121891405D01*
X66087989Y-122170757D01*
X66029000Y-122467316D01*
X66029000Y-122769684D01*
X66087989Y-123066243D01*
X66203701Y-123345595D01*
X66371688Y-123597005D01*
X66408182Y-123633499D01*
X66391821Y-123633499D01*
X66354498Y-123629823D01*
X66317175Y-123633499D01*
X66317166Y-123633499D01*
X66205513Y-123644496D01*
X66062252Y-123687953D01*
X65930223Y-123758525D01*
X65814498Y-123853498D01*
X65790700Y-123882496D01*
X64894002Y-124779194D01*
X64864999Y-124802997D01*
X64828029Y-124848046D01*
X64770026Y-124918722D01*
X64699455Y-125050751D01*
X64699454Y-125050752D01*
X64655997Y-125194013D01*
X64645000Y-125305666D01*
X64645000Y-125305676D01*
X64641324Y-125342998D01*
X64645000Y-125380321D01*
X64645001Y-132487168D01*
X64641324Y-132524500D01*
X64655998Y-132673485D01*
X64699454Y-132816746D01*
X64770026Y-132948776D01*
X64841201Y-133035502D01*
X64865000Y-133064501D01*
X64893998Y-133088299D01*
X68143201Y-136337503D01*
X68166999Y-136366501D01*
X68282724Y-136461474D01*
X68414753Y-136532046D01*
X68558014Y-136575503D01*
X68669667Y-136586500D01*
X68669676Y-136586500D01*
X68706999Y-136590176D01*
X68744322Y-136586500D01*
X94698178Y-136586500D01*
X94735500Y-136590176D01*
X94772822Y-136586500D01*
X94772833Y-136586500D01*
X94884486Y-136575503D01*
X95027747Y-136532046D01*
X95159776Y-136461474D01*
X95275501Y-136366501D01*
X95299304Y-136337497D01*
X96417730Y-135219072D01*
X97181000Y-135219072D01*
X97305482Y-135206812D01*
X97425180Y-135170502D01*
X97535494Y-135111537D01*
X97632185Y-135032185D01*
X97711537Y-134935494D01*
X97770502Y-134825180D01*
X97806812Y-134705482D01*
X97819072Y-134581000D01*
X97819072Y-134181000D01*
X97806812Y-134056518D01*
X97770502Y-133936820D01*
X97719284Y-133841000D01*
X98031699Y-133841000D01*
X98544701Y-134354002D01*
X98568499Y-134383001D01*
X98684224Y-134477974D01*
X98816253Y-134548546D01*
X98959514Y-134592003D01*
X99071167Y-134603000D01*
X99071175Y-134603000D01*
X99108500Y-134606676D01*
X99145825Y-134603000D01*
X100117178Y-134603000D01*
X100154500Y-134606676D01*
X100191822Y-134603000D01*
X100191833Y-134603000D01*
X100303486Y-134592003D01*
X100446747Y-134548546D01*
X100578776Y-134477974D01*
X100694501Y-134383001D01*
X100718304Y-134353997D01*
X102492004Y-132580298D01*
X102521001Y-132556501D01*
X102553254Y-132517201D01*
X102615974Y-132440777D01*
X102686546Y-132308747D01*
X102691778Y-132291498D01*
X102730003Y-132165486D01*
X102741000Y-132053833D01*
X102741000Y-132053824D01*
X102744676Y-132016501D01*
X102741000Y-131979178D01*
X102741000Y-124019822D01*
X102744676Y-123982499D01*
X102741000Y-123945176D01*
X102741000Y-123945167D01*
X102730003Y-123833514D01*
X102686546Y-123690253D01*
X102615974Y-123558224D01*
X102578077Y-123512046D01*
X102544799Y-123471496D01*
X102544795Y-123471492D01*
X102521001Y-123442499D01*
X102492008Y-123418705D01*
X101688837Y-122615535D01*
X101690000Y-122609690D01*
X101690000Y-122373310D01*
X101643884Y-122141473D01*
X101553426Y-121923087D01*
X101422101Y-121726545D01*
X101254955Y-121559399D01*
X101058413Y-121428074D01*
X100840027Y-121337616D01*
X100608190Y-121291500D01*
X100371810Y-121291500D01*
X100365964Y-121292663D01*
X99597804Y-120524503D01*
X99574001Y-120495499D01*
X99458276Y-120400526D01*
X99326247Y-120329954D01*
X99182986Y-120286497D01*
X99071333Y-120275500D01*
X99071322Y-120275500D01*
X99034000Y-120271824D01*
X98996678Y-120275500D01*
X89914000Y-120275500D01*
X89914000Y-119353822D01*
X89917676Y-119316499D01*
X89914000Y-119279176D01*
X89914000Y-119279167D01*
X89903003Y-119167514D01*
X89859546Y-119024253D01*
X89798608Y-118910247D01*
X89788974Y-118892223D01*
X89717799Y-118805497D01*
X89694001Y-118776499D01*
X89665004Y-118752702D01*
X88514301Y-117602000D01*
X103378000Y-117602000D01*
X103378000Y-137668000D01*
X64262000Y-137668000D01*
X64262000Y-117602000D01*
X71505698Y-117602000D01*
X67972930Y-121134769D01*
G36*
X84258518Y-123732312D02*
G01*
X84383000Y-123744572D01*
X85348290Y-123744572D01*
X85356998Y-123832986D01*
X85367169Y-123866515D01*
X85400454Y-123976246D01*
X85471026Y-124108276D01*
X85542201Y-124195002D01*
X85566000Y-124224001D01*
X85594998Y-124247799D01*
X88051436Y-126704237D01*
X88001157Y-126869984D01*
X87969589Y-127190500D01*
X88001157Y-127511016D01*
X88094648Y-127819215D01*
X88246469Y-128103252D01*
X88450786Y-128352214D01*
X88699748Y-128556531D01*
X88983785Y-128708352D01*
X89291984Y-128801843D01*
X89532178Y-128825500D01*
X89692822Y-128825500D01*
X89933016Y-128801843D01*
X90241215Y-128708352D01*
X90426001Y-128609582D01*
X90426001Y-128710168D01*
X90422324Y-128747500D01*
X90426001Y-128784833D01*
X90436998Y-128896486D01*
X90450180Y-128939942D01*
X90480454Y-129039746D01*
X90551026Y-129171776D01*
X90618075Y-129253474D01*
X90646000Y-129287501D01*
X90674998Y-129311299D01*
X91351163Y-129987464D01*
X91350000Y-129993310D01*
X91350000Y-130229690D01*
X91396116Y-130461527D01*
X91486574Y-130679913D01*
X91617899Y-130876455D01*
X91785045Y-131043601D01*
X91790001Y-131046912D01*
X91790001Y-131312668D01*
X91786324Y-131350000D01*
X91790001Y-131387333D01*
X91800998Y-131498986D01*
X91811525Y-131533688D01*
X91844454Y-131642246D01*
X91915026Y-131774276D01*
X91940246Y-131805006D01*
X92010000Y-131890001D01*
X92038998Y-131913799D01*
X93446941Y-133321742D01*
X93455188Y-133405482D01*
X93455345Y-133406000D01*
X93455188Y-133406518D01*
X93442928Y-133531000D01*
X93442928Y-133621000D01*
X91308076Y-133621000D01*
X91350843Y-133480016D01*
X91382411Y-133159500D01*
X91350843Y-132838984D01*
X91257352Y-132530785D01*
X91105531Y-132246748D01*
X90901214Y-131997786D01*
X90652252Y-131793469D01*
X90368215Y-131641648D01*
X90060016Y-131548157D01*
X89819822Y-131524500D01*
X89659178Y-131524500D01*
X89418984Y-131548157D01*
X89110785Y-131641648D01*
X88826748Y-131793469D01*
X88577786Y-131997786D01*
X88373469Y-132246748D01*
X88221648Y-132530785D01*
X88128157Y-132838984D01*
X88096589Y-133159500D01*
X88128157Y-133480016D01*
X88221648Y-133788215D01*
X88373469Y-134072252D01*
X88577786Y-134321214D01*
X88826748Y-134525531D01*
X89110785Y-134677352D01*
X89418984Y-134770843D01*
X89659178Y-134794500D01*
X89819822Y-134794500D01*
X90060016Y-134770843D01*
X90225763Y-134720564D01*
X90397201Y-134892003D01*
X90420999Y-134921001D01*
X90536724Y-135015974D01*
X90631250Y-135066500D01*
X69021802Y-135066500D01*
X67002828Y-133047527D01*
X67116257Y-133094511D01*
X67412816Y-133153500D01*
X67715184Y-133153500D01*
X68011743Y-133094511D01*
X68291095Y-132978799D01*
X68542505Y-132810812D01*
X68756312Y-132597005D01*
X68924299Y-132345595D01*
X69040011Y-132066243D01*
X69064000Y-131945642D01*
X69087989Y-132066243D01*
X69203701Y-132345595D01*
X69371688Y-132597005D01*
X69585495Y-132810812D01*
X69836905Y-132978799D01*
X70116257Y-133094511D01*
X70412816Y-133153500D01*
X70715184Y-133153500D01*
X71011743Y-133094511D01*
X71291095Y-132978799D01*
X71542505Y-132810812D01*
X71756312Y-132597005D01*
X71924299Y-132345595D01*
X72001382Y-132159500D01*
X73101428Y-132159500D01*
X73101428Y-134159500D01*
X73113688Y-134283982D01*
X73149998Y-134403680D01*
X73208963Y-134513994D01*
X73288315Y-134610685D01*
X73385006Y-134690037D01*
X73495320Y-134749002D01*
X73615018Y-134785312D01*
X73739500Y-134797572D01*
X75739500Y-134797572D01*
X75863982Y-134785312D01*
X75983680Y-134749002D01*
X76093994Y-134690037D01*
X76190685Y-134610685D01*
X76270037Y-134513994D01*
X76329002Y-134403680D01*
X76365312Y-134283982D01*
X76377572Y-134159500D01*
X76377572Y-132159500D01*
X76365312Y-132035018D01*
X76329002Y-131915320D01*
X76270037Y-131805006D01*
X76190685Y-131708315D01*
X76093994Y-131628963D01*
X75983680Y-131569998D01*
X75863982Y-131533688D01*
X75739500Y-131521428D01*
X73739500Y-131521428D01*
X73615018Y-131533688D01*
X73495320Y-131569998D01*
X73385006Y-131628963D01*
X73288315Y-131708315D01*
X73208963Y-131805006D01*
X73149998Y-131915320D01*
X73113688Y-132035018D01*
X73101428Y-132159500D01*
X72001382Y-132159500D01*
X72040011Y-132066243D01*
X72099000Y-131769684D01*
X72099000Y-131478501D01*
X77397177Y-131478501D01*
X77434499Y-131482177D01*
X77471821Y-131478501D01*
X77471832Y-131478501D01*
X77583485Y-131467504D01*
X77726746Y-131424047D01*
X77858775Y-131353475D01*
X77974500Y-131258502D01*
X77998303Y-131229498D01*
X83315004Y-125912798D01*
X83344001Y-125889001D01*
X83387493Y-125836006D01*
X83438974Y-125773277D01*
X83509546Y-125641247D01*
X83517339Y-125615555D01*
X83553003Y-125497986D01*
X83564000Y-125386333D01*
X83564000Y-125386324D01*
X83567676Y-125349001D01*
X83564000Y-125311678D01*
X83564000Y-124330301D01*
X84184456Y-123709846D01*
X84258518Y-123732312D01*
X84258518Y-123732312D01*
G37*
X84258518Y-123732312D02*
X84383000Y-123744572D01*
X85348290Y-123744572D01*
X85356998Y-123832986D01*
X85367169Y-123866515D01*
X85400454Y-123976246D01*
X85471026Y-124108276D01*
X85542201Y-124195002D01*
X85566000Y-124224001D01*
X85594998Y-124247799D01*
X88051436Y-126704237D01*
X88001157Y-126869984D01*
X87969589Y-127190500D01*
X88001157Y-127511016D01*
X88094648Y-127819215D01*
X88246469Y-128103252D01*
X88450786Y-128352214D01*
X88699748Y-128556531D01*
X88983785Y-128708352D01*
X89291984Y-128801843D01*
X89532178Y-128825500D01*
X89692822Y-128825500D01*
X89933016Y-128801843D01*
X90241215Y-128708352D01*
X90426001Y-128609582D01*
X90426001Y-128710168D01*
X90422324Y-128747500D01*
X90426001Y-128784833D01*
X90436998Y-128896486D01*
X90450180Y-128939942D01*
X90480454Y-129039746D01*
X90551026Y-129171776D01*
X90618075Y-129253474D01*
X90646000Y-129287501D01*
X90674998Y-129311299D01*
X91351163Y-129987464D01*
X91350000Y-129993310D01*
X91350000Y-130229690D01*
X91396116Y-130461527D01*
X91486574Y-130679913D01*
X91617899Y-130876455D01*
X91785045Y-131043601D01*
X91790001Y-131046912D01*
X91790001Y-131312668D01*
X91786324Y-131350000D01*
X91790001Y-131387333D01*
X91800998Y-131498986D01*
X91811525Y-131533688D01*
X91844454Y-131642246D01*
X91915026Y-131774276D01*
X91940246Y-131805006D01*
X92010000Y-131890001D01*
X92038998Y-131913799D01*
X93446941Y-133321742D01*
X93455188Y-133405482D01*
X93455345Y-133406000D01*
X93455188Y-133406518D01*
X93442928Y-133531000D01*
X93442928Y-133621000D01*
X91308076Y-133621000D01*
X91350843Y-133480016D01*
X91382411Y-133159500D01*
X91350843Y-132838984D01*
X91257352Y-132530785D01*
X91105531Y-132246748D01*
X90901214Y-131997786D01*
X90652252Y-131793469D01*
X90368215Y-131641648D01*
X90060016Y-131548157D01*
X89819822Y-131524500D01*
X89659178Y-131524500D01*
X89418984Y-131548157D01*
X89110785Y-131641648D01*
X88826748Y-131793469D01*
X88577786Y-131997786D01*
X88373469Y-132246748D01*
X88221648Y-132530785D01*
X88128157Y-132838984D01*
X88096589Y-133159500D01*
X88128157Y-133480016D01*
X88221648Y-133788215D01*
X88373469Y-134072252D01*
X88577786Y-134321214D01*
X88826748Y-134525531D01*
X89110785Y-134677352D01*
X89418984Y-134770843D01*
X89659178Y-134794500D01*
X89819822Y-134794500D01*
X90060016Y-134770843D01*
X90225763Y-134720564D01*
X90397201Y-134892003D01*
X90420999Y-134921001D01*
X90536724Y-135015974D01*
X90631250Y-135066500D01*
X69021802Y-135066500D01*
X67002828Y-133047527D01*
X67116257Y-133094511D01*
X67412816Y-133153500D01*
X67715184Y-133153500D01*
X68011743Y-133094511D01*
X68291095Y-132978799D01*
X68542505Y-132810812D01*
X68756312Y-132597005D01*
X68924299Y-132345595D01*
X69040011Y-132066243D01*
X69064000Y-131945642D01*
X69087989Y-132066243D01*
X69203701Y-132345595D01*
X69371688Y-132597005D01*
X69585495Y-132810812D01*
X69836905Y-132978799D01*
X70116257Y-133094511D01*
X70412816Y-133153500D01*
X70715184Y-133153500D01*
X71011743Y-133094511D01*
X71291095Y-132978799D01*
X71542505Y-132810812D01*
X71756312Y-132597005D01*
X71924299Y-132345595D01*
X72001382Y-132159500D01*
X73101428Y-132159500D01*
X73101428Y-134159500D01*
X73113688Y-134283982D01*
X73149998Y-134403680D01*
X73208963Y-134513994D01*
X73288315Y-134610685D01*
X73385006Y-134690037D01*
X73495320Y-134749002D01*
X73615018Y-134785312D01*
X73739500Y-134797572D01*
X75739500Y-134797572D01*
X75863982Y-134785312D01*
X75983680Y-134749002D01*
X76093994Y-134690037D01*
X76190685Y-134610685D01*
X76270037Y-134513994D01*
X76329002Y-134403680D01*
X76365312Y-134283982D01*
X76377572Y-134159500D01*
X76377572Y-132159500D01*
X76365312Y-132035018D01*
X76329002Y-131915320D01*
X76270037Y-131805006D01*
X76190685Y-131708315D01*
X76093994Y-131628963D01*
X75983680Y-131569998D01*
X75863982Y-131533688D01*
X75739500Y-131521428D01*
X73739500Y-131521428D01*
X73615018Y-131533688D01*
X73495320Y-131569998D01*
X73385006Y-131628963D01*
X73288315Y-131708315D01*
X73208963Y-131805006D01*
X73149998Y-131915320D01*
X73113688Y-132035018D01*
X73101428Y-132159500D01*
X72001382Y-132159500D01*
X72040011Y-132066243D01*
X72099000Y-131769684D01*
X72099000Y-131478501D01*
X77397177Y-131478501D01*
X77434499Y-131482177D01*
X77471821Y-131478501D01*
X77471832Y-131478501D01*
X77583485Y-131467504D01*
X77726746Y-131424047D01*
X77858775Y-131353475D01*
X77974500Y-131258502D01*
X77998303Y-131229498D01*
X83315004Y-125912798D01*
X83344001Y-125889001D01*
X83387493Y-125836006D01*
X83438974Y-125773277D01*
X83509546Y-125641247D01*
X83517339Y-125615555D01*
X83553003Y-125497986D01*
X83564000Y-125386333D01*
X83564000Y-125386324D01*
X83567676Y-125349001D01*
X83564000Y-125311678D01*
X83564000Y-124330301D01*
X84184456Y-123709846D01*
X84258518Y-123732312D01*
G36*
X94526205Y-128082508D02*
G01*
X94549999Y-128111501D01*
X94578992Y-128135295D01*
X94578996Y-128135299D01*
X94637975Y-128183701D01*
X94665724Y-128206474D01*
X94797753Y-128277046D01*
X94941014Y-128320503D01*
X95052667Y-128331500D01*
X95052676Y-128331500D01*
X95089999Y-128335176D01*
X95127322Y-128331500D01*
X99554588Y-128331500D01*
X99557899Y-128336455D01*
X99725045Y-128503601D01*
X99921587Y-128634926D01*
X100139973Y-128725384D01*
X100371810Y-128771500D01*
X100608190Y-128771500D01*
X100840027Y-128725384D01*
X101058413Y-128634926D01*
X101221000Y-128526289D01*
X101221000Y-129156711D01*
X101058413Y-129048074D01*
X100840027Y-128957616D01*
X100608190Y-128911500D01*
X100371810Y-128911500D01*
X100139973Y-128957616D01*
X99921587Y-129048074D01*
X99725045Y-129179399D01*
X99557899Y-129346545D01*
X99426574Y-129543087D01*
X99336116Y-129761473D01*
X99290000Y-129993310D01*
X99290000Y-130229690D01*
X99336116Y-130461527D01*
X99426574Y-130679913D01*
X99557899Y-130876455D01*
X99725045Y-131043601D01*
X99921587Y-131174926D01*
X100139973Y-131265384D01*
X100371810Y-131311500D01*
X100608190Y-131311500D01*
X100840027Y-131265384D01*
X101058413Y-131174926D01*
X101221000Y-131066289D01*
X101221000Y-131701698D01*
X99839699Y-133083000D01*
X99423302Y-133083000D01*
X98910303Y-132570002D01*
X98886501Y-132540999D01*
X98770776Y-132446026D01*
X98638747Y-132375454D01*
X98495486Y-132331997D01*
X98383833Y-132321000D01*
X98383822Y-132321000D01*
X98346500Y-132317324D01*
X98309178Y-132321000D01*
X97480373Y-132321000D01*
X97425180Y-132291498D01*
X97305482Y-132255188D01*
X97181000Y-132242928D01*
X95981000Y-132242928D01*
X95856518Y-132255188D01*
X95736820Y-132291498D01*
X95631000Y-132348061D01*
X95525180Y-132291498D01*
X95405482Y-132255188D01*
X95281000Y-132242928D01*
X94517730Y-132242928D01*
X93316679Y-131041877D01*
X93482101Y-130876455D01*
X93613426Y-130679913D01*
X93703884Y-130461527D01*
X93750000Y-130229690D01*
X93750000Y-129993310D01*
X93703884Y-129761473D01*
X93613426Y-129543087D01*
X93482101Y-129346545D01*
X93314955Y-129179399D01*
X93118413Y-129048074D01*
X92900027Y-128957616D01*
X92668190Y-128911500D01*
X92431810Y-128911500D01*
X92425964Y-128912663D01*
X92248298Y-128734997D01*
X92431810Y-128771500D01*
X92668190Y-128771500D01*
X92900027Y-128725384D01*
X93118413Y-128634926D01*
X93314955Y-128503601D01*
X93482101Y-128336455D01*
X93613426Y-128139913D01*
X93703884Y-127921527D01*
X93750000Y-127689690D01*
X93750000Y-127453310D01*
X93713497Y-127269799D01*
X94526205Y-128082508D01*
X94526205Y-128082508D01*
G37*
X94526205Y-128082508D02*
X94549999Y-128111501D01*
X94578992Y-128135295D01*
X94578996Y-128135299D01*
X94637975Y-128183701D01*
X94665724Y-128206474D01*
X94797753Y-128277046D01*
X94941014Y-128320503D01*
X95052667Y-128331500D01*
X95052676Y-128331500D01*
X95089999Y-128335176D01*
X95127322Y-128331500D01*
X99554588Y-128331500D01*
X99557899Y-128336455D01*
X99725045Y-128503601D01*
X99921587Y-128634926D01*
X100139973Y-128725384D01*
X100371810Y-128771500D01*
X100608190Y-128771500D01*
X100840027Y-128725384D01*
X101058413Y-128634926D01*
X101221000Y-128526289D01*
X101221000Y-129156711D01*
X101058413Y-129048074D01*
X100840027Y-128957616D01*
X100608190Y-128911500D01*
X100371810Y-128911500D01*
X100139973Y-128957616D01*
X99921587Y-129048074D01*
X99725045Y-129179399D01*
X99557899Y-129346545D01*
X99426574Y-129543087D01*
X99336116Y-129761473D01*
X99290000Y-129993310D01*
X99290000Y-130229690D01*
X99336116Y-130461527D01*
X99426574Y-130679913D01*
X99557899Y-130876455D01*
X99725045Y-131043601D01*
X99921587Y-131174926D01*
X100139973Y-131265384D01*
X100371810Y-131311500D01*
X100608190Y-131311500D01*
X100840027Y-131265384D01*
X101058413Y-131174926D01*
X101221000Y-131066289D01*
X101221000Y-131701698D01*
X99839699Y-133083000D01*
X99423302Y-133083000D01*
X98910303Y-132570002D01*
X98886501Y-132540999D01*
X98770776Y-132446026D01*
X98638747Y-132375454D01*
X98495486Y-132331997D01*
X98383833Y-132321000D01*
X98383822Y-132321000D01*
X98346500Y-132317324D01*
X98309178Y-132321000D01*
X97480373Y-132321000D01*
X97425180Y-132291498D01*
X97305482Y-132255188D01*
X97181000Y-132242928D01*
X95981000Y-132242928D01*
X95856518Y-132255188D01*
X95736820Y-132291498D01*
X95631000Y-132348061D01*
X95525180Y-132291498D01*
X95405482Y-132255188D01*
X95281000Y-132242928D01*
X94517730Y-132242928D01*
X93316679Y-131041877D01*
X93482101Y-130876455D01*
X93613426Y-130679913D01*
X93703884Y-130461527D01*
X93750000Y-130229690D01*
X93750000Y-129993310D01*
X93703884Y-129761473D01*
X93613426Y-129543087D01*
X93482101Y-129346545D01*
X93314955Y-129179399D01*
X93118413Y-129048074D01*
X92900027Y-128957616D01*
X92668190Y-128911500D01*
X92431810Y-128911500D01*
X92425964Y-128912663D01*
X92248298Y-128734997D01*
X92431810Y-128771500D01*
X92668190Y-128771500D01*
X92900027Y-128725384D01*
X93118413Y-128634926D01*
X93314955Y-128503601D01*
X93482101Y-128336455D01*
X93613426Y-128139913D01*
X93703884Y-127921527D01*
X93750000Y-127689690D01*
X93750000Y-127453310D01*
X93713497Y-127269799D01*
X94526205Y-128082508D01*
G36*
X69087989Y-131170757D02*
G01*
X69064000Y-131291358D01*
X69047731Y-131209570D01*
X69089010Y-131168291D01*
X69087989Y-131170757D01*
X69087989Y-131170757D01*
G37*
X69087989Y-131170757D02*
X69064000Y-131291358D01*
X69047731Y-131209570D01*
X69089010Y-131168291D01*
X69087989Y-131170757D01*
G36*
X66203701Y-129345595D02*
G01*
X66371688Y-129597005D01*
X66585495Y-129810812D01*
X66836905Y-129978799D01*
X67116257Y-130094511D01*
X67236858Y-130118500D01*
X67116257Y-130142489D01*
X66836905Y-130258201D01*
X66585495Y-130426188D01*
X66371688Y-130639995D01*
X66203701Y-130891405D01*
X66165000Y-130984837D01*
X66165000Y-129252163D01*
X66203701Y-129345595D01*
X66203701Y-129345595D01*
G37*
X66203701Y-129345595D02*
X66371688Y-129597005D01*
X66585495Y-129810812D01*
X66836905Y-129978799D01*
X67116257Y-130094511D01*
X67236858Y-130118500D01*
X67116257Y-130142489D01*
X66836905Y-130258201D01*
X66585495Y-130426188D01*
X66371688Y-130639995D01*
X66203701Y-130891405D01*
X66165000Y-130984837D01*
X66165000Y-129252163D01*
X66203701Y-129345595D01*
G36*
X67972930Y-130134769D02*
G01*
X67891142Y-130118500D01*
X68011743Y-130094511D01*
X68014209Y-130093490D01*
X67972930Y-130134769D01*
X67972930Y-130134769D01*
G37*
X67972930Y-130134769D02*
X67891142Y-130118500D01*
X68011743Y-130094511D01*
X68014209Y-130093490D01*
X67972930Y-130134769D01*
G36*
X69087989Y-129066243D02*
G01*
X69109775Y-129118838D01*
X69046752Y-129137955D01*
X68999943Y-129162975D01*
X69040011Y-129066243D01*
X69064000Y-128945642D01*
X69087989Y-129066243D01*
X69087989Y-129066243D01*
G37*
X69087989Y-129066243D02*
X69109775Y-129118838D01*
X69046752Y-129137955D01*
X68999943Y-129162975D01*
X69040011Y-129066243D01*
X69064000Y-128945642D01*
X69087989Y-129066243D01*
G36*
X76851698Y-129083501D02*
G01*
X72032862Y-129083501D01*
X72040011Y-129066243D01*
X72099000Y-128769684D01*
X72099000Y-128467316D01*
X72040011Y-128170757D01*
X71924299Y-127891405D01*
X71756312Y-127639995D01*
X71542505Y-127426188D01*
X71291095Y-127258201D01*
X71011743Y-127142489D01*
X70891142Y-127118500D01*
X71011743Y-127094511D01*
X71291095Y-126978799D01*
X71542505Y-126810812D01*
X71756312Y-126597005D01*
X71902313Y-126378500D01*
X72974428Y-126378500D01*
X72974428Y-128190500D01*
X72986688Y-128314982D01*
X73022998Y-128434680D01*
X73081963Y-128544994D01*
X73161315Y-128641685D01*
X73258006Y-128721037D01*
X73368320Y-128780002D01*
X73488018Y-128816312D01*
X73612500Y-128828572D01*
X75612500Y-128828572D01*
X75736982Y-128816312D01*
X75856680Y-128780002D01*
X75966994Y-128721037D01*
X76063685Y-128641685D01*
X76143037Y-128544994D01*
X76202002Y-128434680D01*
X76238312Y-128314982D01*
X76250572Y-128190500D01*
X76250572Y-126378500D01*
X79449178Y-126378500D01*
X79486500Y-126382176D01*
X79523822Y-126378500D01*
X79523833Y-126378500D01*
X79560289Y-126374909D01*
X76851698Y-129083501D01*
X76851698Y-129083501D01*
G37*
X76851698Y-129083501D02*
X72032862Y-129083501D01*
X72040011Y-129066243D01*
X72099000Y-128769684D01*
X72099000Y-128467316D01*
X72040011Y-128170757D01*
X71924299Y-127891405D01*
X71756312Y-127639995D01*
X71542505Y-127426188D01*
X71291095Y-127258201D01*
X71011743Y-127142489D01*
X70891142Y-127118500D01*
X71011743Y-127094511D01*
X71291095Y-126978799D01*
X71542505Y-126810812D01*
X71756312Y-126597005D01*
X71902313Y-126378500D01*
X72974428Y-126378500D01*
X72974428Y-128190500D01*
X72986688Y-128314982D01*
X73022998Y-128434680D01*
X73081963Y-128544994D01*
X73161315Y-128641685D01*
X73258006Y-128721037D01*
X73368320Y-128780002D01*
X73488018Y-128816312D01*
X73612500Y-128828572D01*
X75612500Y-128828572D01*
X75736982Y-128816312D01*
X75856680Y-128780002D01*
X75966994Y-128721037D01*
X76063685Y-128641685D01*
X76143037Y-128544994D01*
X76202002Y-128434680D01*
X76238312Y-128314982D01*
X76250572Y-128190500D01*
X76250572Y-126378500D01*
X79449178Y-126378500D01*
X79486500Y-126382176D01*
X79523822Y-126378500D01*
X79523833Y-126378500D01*
X79560289Y-126374909D01*
X76851698Y-129083501D01*
G36*
X69080269Y-128209570D02*
G01*
X69064000Y-128291358D01*
X69040011Y-128170757D01*
X69038989Y-128168291D01*
X69080269Y-128209570D01*
X69080269Y-128209570D01*
G37*
X69080269Y-128209570D02*
X69064000Y-128291358D01*
X69040011Y-128170757D01*
X69038989Y-128168291D01*
X69080269Y-128209570D01*
G36*
X66203701Y-126345595D02*
G01*
X66371688Y-126597005D01*
X66585495Y-126810812D01*
X66836905Y-126978799D01*
X67116257Y-127094511D01*
X67236858Y-127118500D01*
X67116257Y-127142489D01*
X66836905Y-127258201D01*
X66585495Y-127426188D01*
X66371688Y-127639995D01*
X66203701Y-127891405D01*
X66165000Y-127984837D01*
X66165000Y-126252163D01*
X66203701Y-126345595D01*
X66203701Y-126345595D01*
G37*
X66203701Y-126345595D02*
X66371688Y-126597005D01*
X66585495Y-126810812D01*
X66836905Y-126978799D01*
X67116257Y-127094511D01*
X67236858Y-127118500D01*
X67116257Y-127142489D01*
X66836905Y-127258201D01*
X66585495Y-127426188D01*
X66371688Y-127639995D01*
X66203701Y-127891405D01*
X66165000Y-127984837D01*
X66165000Y-126252163D01*
X66203701Y-126345595D01*
G36*
X68391501Y-127168668D02*
G01*
X68387824Y-127206000D01*
X68400142Y-127331064D01*
X68291095Y-127258201D01*
X68011743Y-127142489D01*
X67891142Y-127118500D01*
X68011743Y-127094511D01*
X68291095Y-126978799D01*
X68391501Y-126911710D01*
X68391501Y-127168668D01*
X68391501Y-127168668D01*
G37*
X68391501Y-127168668D02*
X68387824Y-127206000D01*
X68400142Y-127331064D01*
X68291095Y-127258201D01*
X68011743Y-127142489D01*
X67891142Y-127118500D01*
X68011743Y-127094511D01*
X68291095Y-126978799D01*
X68391501Y-126911710D01*
X68391501Y-127168668D01*
G36*
X70116257Y-127094511D02*
G01*
X70236858Y-127118500D01*
X70155070Y-127134769D01*
X70113791Y-127093489D01*
X70116257Y-127094511D01*
X70116257Y-127094511D01*
G37*
X70116257Y-127094511D02*
X70236858Y-127118500D01*
X70155070Y-127134769D01*
X70113791Y-127093489D01*
X70116257Y-127094511D01*
G36*
X91486574Y-121923087D02*
G01*
X91396116Y-122141473D01*
X91350000Y-122373310D01*
X91350000Y-122609690D01*
X91396116Y-122841527D01*
X91486574Y-123059913D01*
X91617899Y-123256455D01*
X91785045Y-123423601D01*
X91981587Y-123554926D01*
X92199973Y-123645384D01*
X92431810Y-123691500D01*
X92668190Y-123691500D01*
X92900027Y-123645384D01*
X93118413Y-123554926D01*
X93314955Y-123423601D01*
X93482101Y-123256455D01*
X93613426Y-123059913D01*
X93703884Y-122841527D01*
X93750000Y-122609690D01*
X93750000Y-122373310D01*
X93703884Y-122141473D01*
X93613426Y-121923087D01*
X93528175Y-121795500D01*
X98719199Y-121795500D01*
X99291163Y-122367464D01*
X99290000Y-122373310D01*
X99290000Y-122609690D01*
X99336116Y-122841527D01*
X99426574Y-123059913D01*
X99557899Y-123256455D01*
X99725045Y-123423601D01*
X99921587Y-123554926D01*
X100139973Y-123645384D01*
X100371810Y-123691500D01*
X100608190Y-123691500D01*
X100614035Y-123690337D01*
X100791701Y-123868003D01*
X100608190Y-123831500D01*
X100371810Y-123831500D01*
X100139973Y-123877616D01*
X99921587Y-123968074D01*
X99725045Y-124099399D01*
X99557899Y-124266545D01*
X99426574Y-124463087D01*
X99336116Y-124681473D01*
X99290000Y-124913310D01*
X99290000Y-125149690D01*
X99336116Y-125381527D01*
X99426574Y-125599913D01*
X99557899Y-125796455D01*
X99725045Y-125963601D01*
X99921587Y-126094926D01*
X100139973Y-126185384D01*
X100371810Y-126231500D01*
X100608190Y-126231500D01*
X100840027Y-126185384D01*
X101058413Y-126094926D01*
X101221001Y-125986288D01*
X101221001Y-126616711D01*
X101058413Y-126508074D01*
X100840027Y-126417616D01*
X100608190Y-126371500D01*
X100371810Y-126371500D01*
X100139973Y-126417616D01*
X99921587Y-126508074D01*
X99725045Y-126639399D01*
X99557899Y-126806545D01*
X99554588Y-126811500D01*
X95404803Y-126811500D01*
X93748837Y-125155536D01*
X93750000Y-125149690D01*
X93750000Y-124913310D01*
X93703884Y-124681473D01*
X93613426Y-124463087D01*
X93482101Y-124266545D01*
X93314955Y-124099399D01*
X93118413Y-123968074D01*
X92900027Y-123877616D01*
X92668190Y-123831500D01*
X92431810Y-123831500D01*
X92199973Y-123877616D01*
X91981587Y-123968074D01*
X91785045Y-124099399D01*
X91617899Y-124266545D01*
X91486574Y-124463087D01*
X91396116Y-124681473D01*
X91377311Y-124776009D01*
X88932801Y-122331500D01*
X89468802Y-121795500D01*
X91571825Y-121795500D01*
X91486574Y-121923087D01*
X91486574Y-121923087D01*
G37*
X91486574Y-121923087D02*
X91396116Y-122141473D01*
X91350000Y-122373310D01*
X91350000Y-122609690D01*
X91396116Y-122841527D01*
X91486574Y-123059913D01*
X91617899Y-123256455D01*
X91785045Y-123423601D01*
X91981587Y-123554926D01*
X92199973Y-123645384D01*
X92431810Y-123691500D01*
X92668190Y-123691500D01*
X92900027Y-123645384D01*
X93118413Y-123554926D01*
X93314955Y-123423601D01*
X93482101Y-123256455D01*
X93613426Y-123059913D01*
X93703884Y-122841527D01*
X93750000Y-122609690D01*
X93750000Y-122373310D01*
X93703884Y-122141473D01*
X93613426Y-121923087D01*
X93528175Y-121795500D01*
X98719199Y-121795500D01*
X99291163Y-122367464D01*
X99290000Y-122373310D01*
X99290000Y-122609690D01*
X99336116Y-122841527D01*
X99426574Y-123059913D01*
X99557899Y-123256455D01*
X99725045Y-123423601D01*
X99921587Y-123554926D01*
X100139973Y-123645384D01*
X100371810Y-123691500D01*
X100608190Y-123691500D01*
X100614035Y-123690337D01*
X100791701Y-123868003D01*
X100608190Y-123831500D01*
X100371810Y-123831500D01*
X100139973Y-123877616D01*
X99921587Y-123968074D01*
X99725045Y-124099399D01*
X99557899Y-124266545D01*
X99426574Y-124463087D01*
X99336116Y-124681473D01*
X99290000Y-124913310D01*
X99290000Y-125149690D01*
X99336116Y-125381527D01*
X99426574Y-125599913D01*
X99557899Y-125796455D01*
X99725045Y-125963601D01*
X99921587Y-126094926D01*
X100139973Y-126185384D01*
X100371810Y-126231500D01*
X100608190Y-126231500D01*
X100840027Y-126185384D01*
X101058413Y-126094926D01*
X101221001Y-125986288D01*
X101221001Y-126616711D01*
X101058413Y-126508074D01*
X100840027Y-126417616D01*
X100608190Y-126371500D01*
X100371810Y-126371500D01*
X100139973Y-126417616D01*
X99921587Y-126508074D01*
X99725045Y-126639399D01*
X99557899Y-126806545D01*
X99554588Y-126811500D01*
X95404803Y-126811500D01*
X93748837Y-125155536D01*
X93750000Y-125149690D01*
X93750000Y-124913310D01*
X93703884Y-124681473D01*
X93613426Y-124463087D01*
X93482101Y-124266545D01*
X93314955Y-124099399D01*
X93118413Y-123968074D01*
X92900027Y-123877616D01*
X92668190Y-123831500D01*
X92431810Y-123831500D01*
X92199973Y-123877616D01*
X91981587Y-123968074D01*
X91785045Y-124099399D01*
X91617899Y-124266545D01*
X91486574Y-124463087D01*
X91396116Y-124681473D01*
X91377311Y-124776009D01*
X88932801Y-122331500D01*
X89468802Y-121795500D01*
X91571825Y-121795500D01*
X91486574Y-121923087D01*
G36*
X91981587Y-126094926D02*
G01*
X92199973Y-126185384D01*
X92431810Y-126231500D01*
X92668190Y-126231500D01*
X92674036Y-126230337D01*
X92851702Y-126408003D01*
X92668190Y-126371500D01*
X92431810Y-126371500D01*
X92199973Y-126417616D01*
X91981587Y-126508074D01*
X91946000Y-126531852D01*
X91946000Y-126071148D01*
X91981587Y-126094926D01*
X91981587Y-126094926D01*
G37*
X91981587Y-126094926D02*
X92199973Y-126185384D01*
X92431810Y-126231500D01*
X92668190Y-126231500D01*
X92674036Y-126230337D01*
X92851702Y-126408003D01*
X92668190Y-126371500D01*
X92431810Y-126371500D01*
X92199973Y-126417616D01*
X91981587Y-126508074D01*
X91946000Y-126531852D01*
X91946000Y-126071148D01*
X91981587Y-126094926D01*
G36*
X83744928Y-122093621D02*
G01*
X83720753Y-122100954D01*
X83588724Y-122171526D01*
X83472999Y-122266499D01*
X83449201Y-122295497D01*
X82292998Y-123451701D01*
X82264000Y-123475499D01*
X82240202Y-123504497D01*
X82240201Y-123504498D01*
X82169026Y-123591224D01*
X82098454Y-123723254D01*
X82087755Y-123758526D01*
X82054998Y-123866514D01*
X82047858Y-123939003D01*
X82040324Y-124015500D01*
X82044001Y-124052832D01*
X82044000Y-125034198D01*
X81405000Y-125673198D01*
X81405000Y-123504801D01*
X83243302Y-121666500D01*
X83744928Y-121666500D01*
X83744928Y-122093621D01*
X83744928Y-122093621D01*
G37*
X83744928Y-122093621D02*
X83720753Y-122100954D01*
X83588724Y-122171526D01*
X83472999Y-122266499D01*
X83449201Y-122295497D01*
X82292998Y-123451701D01*
X82264000Y-123475499D01*
X82240202Y-123504497D01*
X82240201Y-123504498D01*
X82169026Y-123591224D01*
X82098454Y-123723254D01*
X82087755Y-123758526D01*
X82054998Y-123866514D01*
X82047858Y-123939003D01*
X82040324Y-124015500D01*
X82044001Y-124052832D01*
X82044000Y-125034198D01*
X81405000Y-125673198D01*
X81405000Y-123504801D01*
X83243302Y-121666500D01*
X83744928Y-121666500D01*
X83744928Y-122093621D01*
G36*
X90073458Y-125621759D02*
G01*
X89933016Y-125579157D01*
X89692822Y-125555500D01*
X89532178Y-125555500D01*
X89291984Y-125579157D01*
X89126237Y-125629436D01*
X87241373Y-123744572D01*
X88083000Y-123744572D01*
X88186115Y-123734416D01*
X90073458Y-125621759D01*
X90073458Y-125621759D01*
G37*
X90073458Y-125621759D02*
X89933016Y-125579157D01*
X89692822Y-125555500D01*
X89532178Y-125555500D01*
X89291984Y-125579157D01*
X89126237Y-125629436D01*
X87241373Y-123744572D01*
X88083000Y-123744572D01*
X88186115Y-123734416D01*
X90073458Y-125621759D01*
G36*
X73931817Y-120662706D02*
G01*
X74008153Y-120914354D01*
X74132118Y-121146275D01*
X74298945Y-121349555D01*
X74305550Y-121354975D01*
X74210538Y-121449987D01*
X74064439Y-121668641D01*
X73963804Y-121911595D01*
X73912500Y-122169514D01*
X73912500Y-122432486D01*
X73963804Y-122690405D01*
X74064439Y-122933359D01*
X74210538Y-123152013D01*
X74396487Y-123337962D01*
X74615141Y-123484061D01*
X74858095Y-123584696D01*
X75116014Y-123636000D01*
X75378986Y-123636000D01*
X75636905Y-123584696D01*
X75879859Y-123484061D01*
X76098513Y-123337962D01*
X76284462Y-123152013D01*
X76345275Y-123061000D01*
X76421678Y-123061000D01*
X76459000Y-123064676D01*
X76496322Y-123061000D01*
X76496333Y-123061000D01*
X76607986Y-123050003D01*
X76751247Y-123006546D01*
X76883276Y-122935974D01*
X76999001Y-122841001D01*
X77022804Y-122811997D01*
X77032041Y-122802760D01*
X77112439Y-122996859D01*
X77258538Y-123215513D01*
X77444487Y-123401462D01*
X77663141Y-123547561D01*
X77906095Y-123648196D01*
X78164014Y-123699500D01*
X78426986Y-123699500D01*
X78684905Y-123648196D01*
X78927859Y-123547561D01*
X79146513Y-123401462D01*
X79332462Y-123215513D01*
X79434992Y-123062065D01*
X79434990Y-124595208D01*
X79171699Y-124858500D01*
X72076284Y-124858500D01*
X72110747Y-124848046D01*
X72242776Y-124777474D01*
X72358501Y-124682501D01*
X72382303Y-124653498D01*
X73282008Y-123753795D01*
X73311001Y-123730001D01*
X73334795Y-123701008D01*
X73334799Y-123701004D01*
X73405973Y-123614277D01*
X73412269Y-123602499D01*
X73476546Y-123482247D01*
X73520003Y-123338986D01*
X73531000Y-123227333D01*
X73531000Y-123227324D01*
X73534676Y-123190001D01*
X73531000Y-123152678D01*
X73531000Y-121028301D01*
X73928659Y-120630642D01*
X73931817Y-120662706D01*
X73931817Y-120662706D01*
G37*
X73931817Y-120662706D02*
X74008153Y-120914354D01*
X74132118Y-121146275D01*
X74298945Y-121349555D01*
X74305550Y-121354975D01*
X74210538Y-121449987D01*
X74064439Y-121668641D01*
X73963804Y-121911595D01*
X73912500Y-122169514D01*
X73912500Y-122432486D01*
X73963804Y-122690405D01*
X74064439Y-122933359D01*
X74210538Y-123152013D01*
X74396487Y-123337962D01*
X74615141Y-123484061D01*
X74858095Y-123584696D01*
X75116014Y-123636000D01*
X75378986Y-123636000D01*
X75636905Y-123584696D01*
X75879859Y-123484061D01*
X76098513Y-123337962D01*
X76284462Y-123152013D01*
X76345275Y-123061000D01*
X76421678Y-123061000D01*
X76459000Y-123064676D01*
X76496322Y-123061000D01*
X76496333Y-123061000D01*
X76607986Y-123050003D01*
X76751247Y-123006546D01*
X76883276Y-122935974D01*
X76999001Y-122841001D01*
X77022804Y-122811997D01*
X77032041Y-122802760D01*
X77112439Y-122996859D01*
X77258538Y-123215513D01*
X77444487Y-123401462D01*
X77663141Y-123547561D01*
X77906095Y-123648196D01*
X78164014Y-123699500D01*
X78426986Y-123699500D01*
X78684905Y-123648196D01*
X78927859Y-123547561D01*
X79146513Y-123401462D01*
X79332462Y-123215513D01*
X79434992Y-123062065D01*
X79434990Y-124595208D01*
X79171699Y-124858500D01*
X72076284Y-124858500D01*
X72110747Y-124848046D01*
X72242776Y-124777474D01*
X72358501Y-124682501D01*
X72382303Y-124653498D01*
X73282008Y-123753795D01*
X73311001Y-123730001D01*
X73334795Y-123701008D01*
X73334799Y-123701004D01*
X73405973Y-123614277D01*
X73412269Y-123602499D01*
X73476546Y-123482247D01*
X73520003Y-123338986D01*
X73531000Y-123227333D01*
X73531000Y-123227324D01*
X73534676Y-123190001D01*
X73531000Y-123152678D01*
X73531000Y-121028301D01*
X73928659Y-120630642D01*
X73931817Y-120662706D01*
G36*
X69080269Y-123027430D02*
G01*
X69038990Y-123068709D01*
X69040011Y-123066243D01*
X69064000Y-122945642D01*
X69080269Y-123027430D01*
X69080269Y-123027430D01*
G37*
X69080269Y-123027430D02*
X69038990Y-123068709D01*
X69040011Y-123066243D01*
X69064000Y-122945642D01*
X69080269Y-123027430D01*
G36*
X79683989Y-122439800D02*
G01*
X79654991Y-122463598D01*
X79631193Y-122492596D01*
X79631192Y-122492597D01*
X79630500Y-122493440D01*
X79630500Y-122233014D01*
X79579196Y-121975095D01*
X79478561Y-121732141D01*
X79332462Y-121513487D01*
X79237450Y-121418475D01*
X79244055Y-121413055D01*
X79410882Y-121209775D01*
X79534847Y-120977854D01*
X79611183Y-120726206D01*
X79636959Y-120464500D01*
X79611183Y-120202794D01*
X79534847Y-119951146D01*
X79410882Y-119719225D01*
X79244055Y-119515945D01*
X79075968Y-119378000D01*
X82745788Y-119378000D01*
X79683989Y-122439800D01*
X79683989Y-122439800D01*
G37*
X79683989Y-122439800D02*
X79654991Y-122463598D01*
X79631193Y-122492596D01*
X79631192Y-122492597D01*
X79630500Y-122493440D01*
X79630500Y-122233014D01*
X79579196Y-121975095D01*
X79478561Y-121732141D01*
X79332462Y-121513487D01*
X79237450Y-121418475D01*
X79244055Y-121413055D01*
X79410882Y-121209775D01*
X79534847Y-120977854D01*
X79611183Y-120726206D01*
X79636959Y-120464500D01*
X79611183Y-120202794D01*
X79534847Y-119951146D01*
X79410882Y-119719225D01*
X79244055Y-119515945D01*
X79075968Y-119378000D01*
X82745788Y-119378000D01*
X79683989Y-122439800D01*
G36*
X69087989Y-122170757D02*
G01*
X69064000Y-122291358D01*
X69047731Y-122209570D01*
X69089011Y-122168291D01*
X69087989Y-122170757D01*
X69087989Y-122170757D01*
G37*
X69087989Y-122170757D02*
X69064000Y-122291358D01*
X69047731Y-122209570D01*
X69089011Y-122168291D01*
X69087989Y-122170757D01*
G36*
X72260003Y-120149696D02*
G01*
X72230999Y-120173499D01*
X72203085Y-120207513D01*
X72136026Y-120289224D01*
X72076533Y-120400527D01*
X72065454Y-120421254D01*
X72021997Y-120564515D01*
X72011000Y-120676168D01*
X72011000Y-120676178D01*
X72007324Y-120713500D01*
X72011000Y-120750823D01*
X72011001Y-122100720D01*
X71924299Y-121891405D01*
X71756312Y-121639995D01*
X71542505Y-121426188D01*
X71291095Y-121258201D01*
X71011743Y-121142489D01*
X70715184Y-121083500D01*
X70412816Y-121083500D01*
X70116257Y-121142489D01*
X70113791Y-121143510D01*
X72895302Y-118362000D01*
X74047698Y-118362000D01*
X72260003Y-120149696D01*
X72260003Y-120149696D01*
G37*
X72260003Y-120149696D02*
X72230999Y-120173499D01*
X72203085Y-120207513D01*
X72136026Y-120289224D01*
X72076533Y-120400527D01*
X72065454Y-120421254D01*
X72021997Y-120564515D01*
X72011000Y-120676168D01*
X72011000Y-120676178D01*
X72007324Y-120713500D01*
X72011000Y-120750823D01*
X72011001Y-122100720D01*
X71924299Y-121891405D01*
X71756312Y-121639995D01*
X71542505Y-121426188D01*
X71291095Y-121258201D01*
X71011743Y-121142489D01*
X70715184Y-121083500D01*
X70412816Y-121083500D01*
X70116257Y-121142489D01*
X70113791Y-121143510D01*
X72895302Y-118362000D01*
X74047698Y-118362000D01*
X72260003Y-120149696D01*
G36*
X77346945Y-119515945D02*
G01*
X77180118Y-119719225D01*
X77056153Y-119951146D01*
X76979817Y-120202794D01*
X76954041Y-120464500D01*
X76977950Y-120707249D01*
X76259837Y-121425362D01*
X76189450Y-121354975D01*
X76196055Y-121349555D01*
X76362882Y-121146275D01*
X76486847Y-120914354D01*
X76563183Y-120662706D01*
X76588959Y-120401000D01*
X76563183Y-120139294D01*
X76486847Y-119887646D01*
X76362882Y-119655725D01*
X76196055Y-119452445D01*
X76105343Y-119378000D01*
X77515032Y-119378000D01*
X77346945Y-119515945D01*
X77346945Y-119515945D01*
G37*
X77346945Y-119515945D02*
X77180118Y-119719225D01*
X77056153Y-119951146D01*
X76979817Y-120202794D01*
X76954041Y-120464500D01*
X76977950Y-120707249D01*
X76259837Y-121425362D01*
X76189450Y-121354975D01*
X76196055Y-121349555D01*
X76362882Y-121146275D01*
X76486847Y-120914354D01*
X76563183Y-120662706D01*
X76588959Y-120401000D01*
X76563183Y-120139294D01*
X76486847Y-119887646D01*
X76362882Y-119655725D01*
X76196055Y-119452445D01*
X76105343Y-119378000D01*
X77515032Y-119378000D01*
X77346945Y-119515945D01*
G36*
X88394000Y-119631302D02*
G01*
X88394000Y-120052715D01*
X88327180Y-120016998D01*
X88207482Y-119980688D01*
X88140345Y-119974076D01*
X88117974Y-119932224D01*
X88023001Y-119816499D01*
X87994003Y-119792701D01*
X86563301Y-118362000D01*
X87124699Y-118362000D01*
X88394000Y-119631302D01*
X88394000Y-119631302D01*
G37*
X88394000Y-119631302D02*
X88394000Y-120052715D01*
X88327180Y-120016998D01*
X88207482Y-119980688D01*
X88140345Y-119974076D01*
X88117974Y-119932224D01*
X88023001Y-119816499D01*
X87994003Y-119792701D01*
X86563301Y-118362000D01*
X87124699Y-118362000D01*
X88394000Y-119631302D01*
M02*
